<?xml version="1.0" encoding="utf-8"?>
<!-- Generator: Adobe Illustrator 24.2.1, SVG Export Plug-In . SVG Version: 6.00 Build 0)  -->
<svg version="1.1" id="Layer_1" xmlns="http://www.w3.org/2000/svg" xmlns:xlink="http://www.w3.org/1999/xlink" x="0px" y="0px"
	 viewBox="0 0 44 44" style="enable-background:new 0 0 44 44;" xml:space="preserve">
<style type="text/css">
	.st0{fill:#D8D8D8;}
</style>
<g id="Page-1">
	<g id="_x31_-copy-4" transform="translate(-681.000000, -235.000000)">
		<g id="dish" transform="translate(681.000000, 235.000000)">
			<g>
				<path id="Shape" class="st0" d="M18.1,8.6l-0.3-0.9c-0.3-1-1.5-1.6-2.5-1.2c-0.6,0.2-1,0.6-1.2,1.2l-0.3,0.9
					c-0.2,0.8-0.3,1.6-0.1,2.3c0.1,0.7,0.5,1.2,1.1,1.5l-0.3,6.8c0,0.4,0.1,0.8,0.3,1c0.6,0.6,1.5,0.6,2.1,0.1c0,0,0.1-0.1,0.1-0.1
					c0.3-0.3,0.4-0.6,0.3-1l-0.3-6.9c0.6-0.3,1-0.9,1.1-1.5C18.3,10.2,18.3,9.4,18.1,8.6z M17.4,10.8c-0.1,0.5-0.4,0.9-0.9,1
					c-0.2,0.1-0.3,0.2-0.3,0.4l0.3,7.2c0,0.1,0,0.3-0.1,0.4c-0.3,0.3-0.7,0.3-0.9,0c-0.1-0.1-0.1-0.3-0.1-0.4l0.3-7.2
					c0-0.2-0.1-0.4-0.3-0.4c-0.5-0.2-0.8-0.5-0.9-1c-0.1-0.6-0.1-1.3,0.1-1.9L14.9,8c0.2-0.6,0.8-0.9,1.4-0.7
					C16.6,7.4,16.9,7.6,17,8l0.3,0.9C17.4,9.5,17.5,10.1,17.4,10.8z"/>
				<path id="Path" class="st0" d="M11.5,6.4c-0.2,0-0.4,0.2-0.4,0.4v3.7l-1.2,1.2c-0.1,0.1-0.1,0.2-0.1,0.3l0.4,7.4
					c0,0.2,0,0.3-0.2,0.4c-0.2,0.2-0.6,0.2-0.8,0c0,0,0,0,0,0C9,19.7,9,19.5,9,19.4l0.4-7.4c0-0.1,0-0.2-0.1-0.3l-1.2-1.2V6.8
					c0-0.2-0.2-0.4-0.4-0.4S7.2,6.6,7.2,6.8v3.8c0,0.1,0,0.2,0.1,0.3l1.1,1.1l-0.4,7.3c0,0.8,0.6,1.5,1.4,1.5c0.8,0,1.5-0.6,1.5-1.4
					c0,0,0-0.1,0-0.1l-0.4-7.3l1.1-1.1c0.1-0.1,0.1-0.2,0.1-0.3V6.8C11.9,6.6,11.7,6.4,11.5,6.4z"/>
				<path id="Path_1_" class="st0" d="M8.9,6.4c-0.2,0-0.4,0.2-0.4,0.4v3.4c0,0.2,0.2,0.4,0.4,0.4s0.4-0.2,0.4-0.4V6.8
					C9.4,6.6,9.2,6.4,8.9,6.4z"/>
				<path id="Path_2_" class="st0" d="M10.2,6.4c-0.2,0-0.4,0.2-0.4,0.4v3.4c0,0.2,0.2,0.4,0.4,0.4c0.2,0,0.4-0.2,0.4-0.4V6.8
					C10.6,6.6,10.4,6.4,10.2,6.4z"/>
				<path id="Shape_1_" class="st0" d="M12.8,0C5.7,0,0,5.7,0,12.8s5.7,12.8,12.8,12.8s12.8-5.7,12.8-12.8C25.5,5.7,19.8,0,12.8,0z
					 M12.8,24.7c-6.6,0-11.9-5.3-11.9-11.9S6.2,0.9,12.8,0.9s11.9,5.3,11.9,11.9C24.7,19.3,19.3,24.7,12.8,24.7z"/>
				<path id="Path_3_" class="st0" d="M14.1,20.7c0-0.2-0.2-0.4-0.5-0.4c0,0,0,0,0,0l0,0c-0.6,0.1-1.2,0.1-1.8,0
					c-0.2,0-0.4,0.1-0.5,0.4c0,0.2,0.1,0.4,0.4,0.5c0.7,0.1,1.3,0.1,2,0C14,21.2,14.2,21,14.1,20.7z"/>
				<path id="Path_4_" class="st0" d="M19.3,7.3c-0.2-0.2-0.4-0.2-0.6-0.1c0,0,0,0,0,0c-0.2,0.2-0.2,0.4-0.1,0.6
					c2.6,3,2.4,7.5-0.5,10.4c-0.2,0.2-0.2,0.4,0,0.6c0.2,0.2,0.4,0.2,0.6,0C21.9,15.7,22.1,10.7,19.3,7.3z"/>
				<g id="Group" transform="translate(16.316667, 7.333333)">
					<path id="Path_5_" class="st0" d="M-6.4-1.7C-6.4-1.7-6.4-1.7-6.4-1.7C-6.4-1.7-6.4-1.7-6.4-1.7L-6.4-1.7z"/>
					<path id="Path_6_" class="st0" d="M-1.6-2.8c-1.7-0.4-3.4-0.3-5,0.3C-6.8-2.5-6.9-2.2-6.8-2c0.1,0.2,0.2,0.3,0.4,0.3
						c0.1,0,0.1,0,0.1,0c1.4-0.5,3-0.6,4.5-0.3C-1.5-2-1.3-2.1-1.2-2.3C-1.2-2.6-1.3-2.8-1.6-2.8z"/>
				</g>
				<path id="Path_7_" class="st0" d="M7.3,18.2c-1.4-1.4-2.2-3.4-2.2-5.4c0-1.6,0.5-3.2,1.5-4.5c0.1-0.2,0.1-0.5-0.1-0.6
					C6.3,7.5,6,7.6,5.9,7.7c0,0,0,0,0,0c-2.5,3.4-2.1,8,0.9,11c0.2,0.2,0.4,0.2,0.6,0C7.5,18.6,7.5,18.3,7.3,18.2z"/>
			</g>
		</g>
	</g>
</g>
</svg>
