<?xml version="1.0" encoding="UTF-8"?>
<svg width="49px" height="43px" viewBox="0 0 49 43" version="1.1" xmlns="http://www.w3.org/2000/svg" xmlns:xlink="http://www.w3.org/1999/xlink">
    <title>0C3A4460-17A7-4111-B29F-4DAE2B411512</title>
    <g id="Page-1" stroke="none" stroke-width="1" fill="none" fill-rule="evenodd">
        <g id="1-copy-4" transform="translate(-1290.000000, -236.000000)" fill="#D8D8D8" fill-rule="nonzero">
            <g id="noun_Food_2149398" transform="translate(1290.000000, 236.000000)">
                <g id="Shape">
                    <path d="M47.9463466,33.347981 L46.2175365,33.347981 C45.7572025,22.5213777 36.6528184,13.7171021 25.3695198,13.2574822 L25.3695198,11.0104513 C27.9064718,10.5610451 29.8398747,8.28337292 29.8398747,5.54608076 C29.8398747,2.49216152 27.4154489,0 24.4488518,0 C21.4822547,0 19.0578288,2.49216152 19.0578288,5.54608076 C19.0578288,8.28337292 20.9912317,10.5610451 23.5281837,11.0104513 L23.5281837,13.2574822 C12.2346555,13.7171021 3.14050104,22.5213777 2.68016701,33.347981 L0.951356994,33.347981 C0.439874739,33.347981 2.9655888e-13,33.7565321 2.9655888e-13,34.2672209 L2.9655888e-13,42.0807601 C2.9655888e-13,42.5914489 0.439874739,42.9489311 0.951356994,42.9489311 L47.9565762,42.9489311 C48.4680585,42.9489311 48.9079332,42.5812352 48.9079332,42.0807601 L48.9079332,34.2672209 C48.8977035,33.7565321 48.4578288,33.347981 47.9463466,33.347981 Z M20.8991649,5.54608076 C20.8991649,3.50332542 22.4949896,1.83847981 24.4488518,1.83847981 C26.402714,1.83847981 27.9985386,3.50332542 27.9985386,5.54608076 C27.9985386,7.5888361 26.402714,9.25368171 24.4488518,9.25368171 C22.4949896,9.25368171 20.8991649,7.59904988 20.8991649,5.54608076 Z M24.4488518,15.0857482 C35.1490605,15.0857482 43.9056367,23.236342 44.3762004,33.347981 L4.52150313,33.347981 C4.99206681,23.236342 13.748643,15.0857482 24.4488518,15.0857482 Z M47.0563674,41.1104513 L1.84133612,41.1104513 L1.84133612,35.1864608 L47.0563674,35.1864608 L47.0563674,41.1104513 Z"></path>
                </g>
            </g>
        </g>
    </g>
</svg>