<?xml version="1.0" encoding="UTF-8"?>
<svg width="56px" height="35px" viewBox="0 0 56 35" version="1.1" xmlns="http://www.w3.org/2000/svg" xmlns:xlink="http://www.w3.org/1999/xlink">
    <title>FFE4C370-360B-4304-8C84-ADAE21BFC007</title>
    <g id="Page-1" stroke="none" stroke-width="1" fill="none" fill-rule="evenodd" stroke-linecap="round" stroke-linejoin="round">
        <g id="1-copy-4" transform="translate(-469.000000, -239.000000)" stroke="#D8D8D8" stroke-width="2">
            <g id="Group-11-Copy" transform="translate(471.000000, 241.000000)">
                <path d="M26.3718,0.0501 C26.3718,0.0501 32.8968,-0.8039 36.9068,4.5301 C41.3508,10.4411 35.8828,21.5691 32.3248,27.0511 C31.0458,29.0221 29.6418,30.2571 28.5178,31.0091 C27.1728,31.9111 25.5708,31.9111 24.2248,31.0091 C23.1018,30.2571 21.6978,29.0221 20.4188,27.0511 C16.8608,21.5691 11.4878,10.5541 15.8368,4.5301 C19.1068,-0.000139066594 26.3718,0.0501 26.3718,0.0501" id="Stroke-1"></path>
                <path d="M14.2126,7.6678 C14.2126,7.6678 6.4596,6.7568 6.8986,13.4478 C7.9536,29.5458 10.9856,27.9318 24.2246,30.9568" id="Stroke-3"></path>
                <path d="M6.8982,13.4476 C6.8982,13.4476 -2.3378,18.8396 0.5642,27.9636 C2.3892,33.6976 10.9852,27.9316 10.9852,27.9316" id="Stroke-5"></path>
                <path d="M38.5305,7.6678 C38.5305,7.6678 46.2845,6.7568 45.8455,13.4478 C44.7895,29.5458 41.7575,27.9318 28.5185,30.9568" id="Stroke-7"></path>
                <path d="M45.8455,13.4476 C45.8455,13.4476 55.0815,18.8396 52.1785,27.9636 C50.3545,33.6976 41.7575,27.9316 41.7575,27.9316" id="Stroke-9"></path>
            </g>
        </g>
    </g>
</svg>