<?xml version="1.0" encoding="UTF-8"?>
<svg width="35px" height="37px" viewBox="0 0 35 37" version="1.1" xmlns="http://www.w3.org/2000/svg" xmlns:xlink="http://www.w3.org/1999/xlink">
    <title>9BFE46C5-FD01-4F2B-A2E8-08B2CFE5C201</title>
    <defs>
        <polygon id="path-1" points="0 0.04694375 10.9475441 0.04694375 10.9475441 37 0 37"></polygon>
    </defs>
    <g id="Page-1" stroke="none" stroke-width="1" fill="none" fill-rule="evenodd">
        <g id="1-copy-4" transform="translate(-1495.000000, -239.000000)">
            <g id="Group-8" transform="translate(1495.000000, 239.000000)">
                <g id="Group-3">
                    <mask id="mask-2" fill="white">
                        <use xlink:href="#path-1"></use>
                    </mask>
                    <g id="Clip-2"></g>
                    <path d="M-5.47263682e-06,37 L-5.47263682e-06,34.7750859 C0.415586567,34.6936859 0.823462189,34.6472047 1.21311393,34.5319844 C3.084099,33.9786031 4.36650199,32.1600531 4.36606418,30.1082297 C4.36414876,20.2040234 4.36502438,10.2997594 4.36491493,0.395495313 L4.36491493,0.079203125 C4.47808905,0.0690859375 4.57347711,0.0531875 4.6689199,0.0531296875 C6.65712886,0.051684375 8.64533781,0.05573125 10.633492,0.0469294871 C10.8658602,0.045903125 10.9455965,0.101345313 10.9454323,0.36468125 C10.9389199,8.80443906 10.9629995,17.2443703 10.9280841,25.6840125 C10.9157159,28.66945 9.84734776,31.2581203 7.89246716,33.4160875 C6.2130791,35.2699031 4.1569,36.3984609 1.76158159,36.8176594 C1.19029303,36.917675 0.606691045,36.9394125 -5.47263682e-06,37" id="Fill-1" fill="#E5E5E5" mask="url(#mask-2)"></path>
                </g>
                <path d="M35,18.1069241 C33.1712108,19.403656 31.3546421,20.6917467 29.5096146,22 C24.6731694,15.0092826 19.8496702,8.03737225 15,1.02762177 C15.1266699,1.01694745 15.2050713,1.0045788 15.2834727,1.00452232 C17.8213341,1.00395755 20.3592514,1.00740269 22.8971128,1 C23.1086571,0.999382838 23.2309186,1.06941539 23.3499994,1.24178584 C27.18313,6.78977617 31.0212828,12.3342084 34.8582079,17.8795442 C34.9051371,17.9473742 34.9457607,18.0196094 35,18.1069241" id="Fill-4" fill="#E5E5E5"></path>
                <path d="M20,29 L20,23.028039 C20.1011624,23.0188822 20.1941241,23.0033965 20.2870857,23.0032618 C21.2630952,23.0013093 22.2392804,22.9936338 23.2150556,23.0119473 C23.3428705,23.0144385 23.5119822,23.1173174 23.588308,23.2361534 C24.011058,23.8942285 24.4186952,24.5657694 24.8142654,25.2459285 C24.9401474,25.4624591 25.0895186,25.5537574 25.307425,25.5952995 C26.4706464,25.8168124 27.6313491,26.0555616 28.7926961,26.2897324 C28.8589467,26.3030635 28.9233227,26.3288506 29,26.3523485 L29,29 L20,29 Z" id="Fill-6" fill="#E5E5E5"></path>
            </g>
        </g>
    </g>
</svg>