<svg xmlns="http://www.w3.org/2000/svg" width="26" height="16" viewBox="0 0 26 16">
    <g fill="none" fill-rule="evenodd">
        <g fill="#161E17" fill-rule="nonzero">
            <g>
                <path d="M2.955.12v13.44c6.145 0 7.287.76 9.454 1.88V1.96C11.306.84 9.691.12 2.955.12zm20.09 0c-6.736 0-8.39.76-9.454 1.88v13.44c2.167-1.12 3.309-1.88 9.454-1.88V.12zM.197 1.52v14.4h11.227c-1.812-.88-3.112-1.4-8.47-1.4h-.906v-13H.197zm23.794 0V14.48h-.906c-5.358 0-6.658.52-8.47 1.4h11.227V1.48h-1.851v.04z" transform="translate(-547 -1085) translate(547 1085)"/>
            </g>
        </g>
    </g>
</svg>
