<?xml version="1.0" encoding="UTF-8"?>
<svg width="52px" height="27px" viewBox="0 0 52 27" version="1.1" xmlns="http://www.w3.org/2000/svg" xmlns:xlink="http://www.w3.org/1999/xlink">
    <title>805D65C4-1720-44C0-B803-1AA508ACA34A</title>
    <g id="Page-1" stroke="none" stroke-width="1" fill="none" fill-rule="evenodd" stroke-linecap="round" stroke-linejoin="round">
        <g id="1-copy-4" transform="translate(-266.000000, -244.000000)" stroke="#D8D8D8" stroke-width="2">
            <g id="Group-9" transform="translate(267.000000, 245.000000)">
                <path d="M49.4447,15.7728 C49.4447,24.4838 38.3767,24.1988 24.7217,24.1988 C11.0687,24.1988 0.0007,24.4838 0.0007,15.7728 C0.0007,7.0618 11.0687,-0.0002 24.7217,-0.0002 C38.3767,-0.0002 49.4447,7.0618 49.4447,15.7728 Z" id="Stroke-1"></path>
                <path d="M27.0424,0.0711 C27.0424,0.0711 23.9644,2.9561 22.5754,6.9391 C22.2774,7.7931 21.0434,7.6481 20.9314,6.7501 C20.7054,4.9401 20.7484,2.7431 21.6404,0.7061" id="Stroke-3"></path>
                <path d="M37.9945,2.4671 C37.9945,2.4671 35.9375,4.5691 34.5955,7.5761 C34.2435,8.3631 33.0725,8.1691 32.9775,7.3121 C32.7855,5.5761 32.8195,3.3211 33.6595,1.0661" id="Stroke-5"></path>
                <path d="M14.9945,1.2684 C14.9945,1.2684 12.8765,4.1674 11.5355,7.5654 C11.2145,8.3814 10.0195,8.2634 9.8985,7.3944 C9.7335,6.2084 9.6655,4.7514 9.8825,3.1574" id="Stroke-7"></path>
            </g>
        </g>
    </g>
</svg>