<?xml version="1.0" encoding="UTF-8"?>
<svg width="49px" height="43px" viewBox="0 0 49 43" version="1.1" xmlns="http://www.w3.org/2000/svg" xmlns:xlink="http://www.w3.org/1999/xlink">
    <title>8218D6C2-14AD-4D2D-8558-688468482E08</title>
    <g id="Page-1" stroke="none" stroke-width="1" fill="none" fill-rule="evenodd" stroke-linecap="round" stroke-linejoin="round">
        <g id="1-copy-4" transform="translate(-886.000000, -236.000000)" stroke="#D8D8D8" stroke-width="2">
            <g id="Group-10" transform="translate(887.000000, 237.000000)">
                <polygon id="Stroke-1" points="0 26.4534 46.104 26.4534 46.104 18.1504 0 18.1504"></polygon>
                <polygon id="Stroke-3" points="0 31.5404 46.104 31.5404 46.104 26.4534 0 26.4534"></polygon>
                <polygon id="Stroke-4" points="0 40.2144 46.104 40.2144 46.104 31.5394 0 31.5394"></polygon>
                <polyline id="Stroke-5" points="21.4281 8.5077 46.1661 18.1507 0.0621 18.1507 10.9701 8.1907"></polyline>
                <path d="M16.4711,11.1327 C16.4711,12.9257 15.0171,14.3807 13.2231,14.3807 C11.4291,14.3807 9.9751,12.9257 9.9751,11.1327 C9.9751,9.3387 11.4291,7.8847 13.2231,7.8847 C15.0171,7.8847 16.4711,9.3387 16.4711,11.1327 Z" id="Stroke-6"></path>
                <path d="M19.7192,5.1816 C19.7192,6.9756 18.2652,8.4296 16.4712,8.4296 C14.6772,8.4296 13.2232,6.9756 13.2232,5.1816 C13.2232,3.3876 14.6772,1.9336 16.4712,1.9336 C18.2652,1.9336 19.7192,3.3876 19.7192,5.1816 Z" id="Stroke-7"></path>
                <path d="M23.2299,11.1327 C23.2299,12.9257 21.7759,14.3807 19.9829,14.3807 C18.1889,14.3807 16.7349,12.9257 16.7349,11.1327 C16.7349,9.3387 18.1889,7.8847 19.9829,7.8847 C21.7759,7.8847 23.2299,9.3387 23.2299,11.1327 Z" id="Stroke-8"></path>
                <path d="M12.0287,2.0619 C13.4157,3.4489 13.4337,5.6789 12.0687,7.0439 C10.7047,8.4089 8.4737,8.3909 7.0877,7.0039 C5.6997,5.6169 5.0247,-0.0001 5.0247,-0.0001 C5.0247,-0.0001 10.6417,0.6749 12.0287,2.0619 Z" id="Stroke-9"></path>
            </g>
        </g>
    </g>
</svg>