<?xml version="1.0" encoding="UTF-8"?>
<svg width="63px" height="62px" viewBox="0 0 63 62" version="1.1" xmlns="http://www.w3.org/2000/svg" xmlns:xlink="http://www.w3.org/1999/xlink">
    <title>0C44BF99-45C6-4190-8114-1A559E3858B9</title>
    <g id="Page-1" stroke="none" stroke-width="1" fill="none" fill-rule="evenodd">
        <g id="1-copy-4" transform="translate(-1070.000000, -226.000000)" fill="#D8D8D8" fill-rule="nonzero">
            <g id="noun_Drink_2253490" transform="translate(1062.000000, 226.000000)">
                <g transform="translate(0.721591, 0.000000)" id="Shape">
                    <path d="M48.3377707,17.9714506 C48.9602195,18.0723293 49.5914006,17.8507328 50.0132366,17.3832242 L51.769123,15.4474199 C52.1014289,15.0810568 52.2742004,14.5980408 52.2494296,14.10463 C52.2246588,13.6112192 52.0043749,13.1478313 51.6370377,12.8164065 L47.303998,8.90659844 L47.303998,8.90659844 C46.5387643,8.21757414 45.3586899,8.27645607 44.6662309,9.03821456 L42.9102252,10.9740188 C42.5767579,11.3396079 42.4037828,11.8230488 42.4298502,12.3165984 C42.4362466,12.4427073 42.4553542,12.5678538 42.4868843,12.6901455 L35.91639,18.9933201 C33.33367,17.7100909 30.210443,18.2958788 28.2715548,20.4271743 L10.367623,40.1644756 C9.33910998,41.3008725 9.4269674,43.0531504 10.5640207,44.0815428 L20.2116116,52.7866522 C20.7209853,53.2489416 21.3852286,53.5046308 22.0739298,53.5035234 C22.1210605,53.5035234 22.1685491,53.5023297 22.2160377,53.4999497 C22.9530843,53.4652385 23.6455651,53.1378494 24.1390889,52.590775 L42.0430207,32.8535927 C43.9774247,30.7149885 44.2487822,27.553896 42.7070264,25.1184679 L48.3377707,17.9714506 Z M43.6843616,14.1838576 L46.7296002,16.9317309 L41.4346173,23.6523643 L37.5078559,20.1092011 L43.6843616,14.1838576 Z M46.0546173,10.3464027 L50.3262082,14.2007558 L48.6259241,16.0751551 L44.3537366,12.2213969 L46.0546173,10.3464027 Z M24.4662593,49.3920034 L19.6196741,45.0189209 L33.3640548,29.8674775 L38.2105207,34.2404411 L24.4662593,49.3920034 Z M40.6273105,31.5762261 L39.4912821,32.8284833 L33.9370207,27.8167174 C33.7492746,27.6473184 33.501743,27.5592464 33.2488854,27.5718781 C32.9960278,27.5845098 32.7585593,27.6968103 32.5887252,27.8840725 L17.5637025,44.4471167 C17.3938681,44.6343805 17.3055827,44.881265 17.3182704,45.1334527 C17.330958,45.3856405 17.4435792,45.6224709 17.6313559,45.7918384 L23.1856173,50.8037232 L22.7236173,51.3129324 C22.5686177,51.4839713 22.3518055,51.5865457 22.1209343,51.5980631 C21.8900631,51.6095806 21.66407,51.5290963 21.4927309,51.3743374 L11.8444241,42.669704 C11.4880327,42.3473238 11.460492,41.7980768 11.7828559,41.4418422 L29.687265,21.7047789 C31.364686,19.8597108 34.2230695,19.7170905 36.0767536,21.3859727 L40.3076571,25.2036733 C42.1603305,26.8753716 42.303444,29.7284565 40.6273105,31.5762261 L40.6273105,31.5762261 Z" transform="translate(30.951004, 30.964773) rotate(-42.000000) translate(-30.951004, -30.964773) "></path>
                    <path d="M60.6913355,42.0381116 C62.2146869,40.4346794 62.9973633,38.2695716 62.850398,36.0655243 L62.1245855,24.4402268 C62.0939176,23.9367767 61.6775345,23.5430283 61.1718298,23.5392633 L48.5249377,23.5392633 C48.019233,23.5430283 47.6028499,23.9367767 47.5721821,24.4402268 L46.8464889,36.0614782 C46.5813615,40.3019326 49.6862989,44.0093071 53.9172843,44.5041884 L53.9172843,52.4567297 L49.6218298,52.4567297 C49.0946489,52.4567297 48.6672843,52.8829615 48.6672843,53.408745 C48.6672843,53.9345286 49.0946489,54.3607604 49.6218298,54.3607604 L60.0025116,54.3607604 C60.5296925,54.3607604 60.9570571,53.9345286 60.9570571,53.408745 C60.9570571,52.8829615 60.5296925,52.4567297 60.0025116,52.4567297 L55.8263752,52.4567297 L55.8263752,44.4982383 C57.688795,44.2780945 59.4126005,43.4063957 60.6913355,42.0381116 Z M50.3966821,40.756223 C49.2355632,39.5271169 48.6396204,37.8715573 48.7517616,36.1865493 L49.4218525,25.443294 L60.274915,25.443294 L60.9450059,36.1758391 C61.0516605,37.8594139 60.4586389,39.5125226 59.3053624,40.7465137 C58.1520859,41.9805048 56.5402926,42.6865198 54.8489207,42.6985723 L54.8479661,42.6985723 C53.1577849,42.6973953 51.5446205,41.9934796 50.3966821,40.756223 Z"></path>
                </g>
            </g>
        </g>
    </g>
</svg>