<svg xmlns="http://www.w3.org/2000/svg" width="18" height="17" viewBox="0 0 18 17">
    <g fill="none" fill-rule="evenodd">
        <g fill="#161E17" fill-rule="nonzero">
            <g>
                <path d="M16.674 0H1.34C.817 0 .392.419.392.935v15.13c0 .248.1.486.278.661.178.175.419.274.67.274h8.253v-6.588h-2.24v-2.55h2.24V5.95c-.094-.909.224-1.812.868-2.468.645-.656 1.55-.997 2.474-.932.67-.004 1.34.03 2.007.102v2.295h-1.37c-1.085 0-1.292.51-1.292 1.25v1.64h2.585l-.336 2.55H12.28V17h4.394c.25 0 .492-.099.67-.274.177-.175.277-.413.277-.661V.935c0-.248-.1-.486-.277-.661-.178-.175-.42-.274-.67-.274z" transform="translate(-257 -1141) translate(257 1141)"/>
            </g>
        </g>
    </g>
</svg>
