<?xml version="1.0" encoding="utf-8"?>
<!-- Generator: Adobe Illustrator 24.2.1, SVG Export Plug-In . SVG Version: 6.00 Build 0)  -->
<svg version="1.1" id="Layer_1" xmlns="http://www.w3.org/2000/svg" xmlns:xlink="http://www.w3.org/1999/xlink" x="0px" y="0px"
	 viewBox="0 0 44 44" style="enable-background:new 0 0 44 44;" xml:space="preserve">
<style type="text/css">
	.st0{fill:#D8D8D8;}
</style>
<g id="Page-1">
	<g id="_x31_-copy-4" transform="translate(-681.000000, -235.000000)">
		<g id="dish" transform="translate(681.000000, 235.000000)">
			<g>
				<path id="Shape" class="st0" d="M31.2,14.8l-0.5-1.5c-0.6-1.8-2.5-2.7-4.3-2.1c-1,0.3-1.8,1.1-2.1,2.1l-0.5,1.5
					c-0.4,1.3-0.5,2.7-0.2,4c0.2,1.1,0.9,2.1,2,2.6L25,33.3c-0.1,0.7,0.1,1.3,0.6,1.8c1,1,2.6,1.1,3.6,0.2c0.1-0.1,0.1-0.1,0.2-0.2
					c0.4-0.5,0.6-1.1,0.6-1.8l-0.5-11.8c1-0.5,1.7-1.5,2-2.6C31.6,17.5,31.6,16.1,31.2,14.8z M30,18.6c-0.2,0.8-0.7,1.5-1.5,1.8
					c-0.3,0.1-0.5,0.4-0.5,0.7l0.6,12.4c0,0.2-0.1,0.5-0.2,0.7c-0.4,0.4-1.2,0.4-1.6,0c-0.2-0.2-0.3-0.5-0.2-0.7L27,21.1
					c0-0.3-0.2-0.6-0.5-0.7c-0.8-0.3-1.4-0.9-1.5-1.8c-0.2-1.1-0.1-2.3,0.2-3.3l0.5-1.6c0.4-1,1.5-1.5,2.4-1.1
					c0.5,0.2,0.9,0.6,1.1,1.1l0.5,1.6C30.1,16.3,30.2,17.5,30,18.6z"/>
				<path id="Path" class="st0" d="M19.8,11c-0.4,0-0.7,0.3-0.7,0.7V18l-2,2c-0.1,0.1-0.2,0.3-0.2,0.6l0.6,12.8
					c0,0.3-0.1,0.5-0.3,0.7c-0.4,0.4-1.1,0.4-1.5,0c0,0,0,0,0,0c-0.2-0.2-0.3-0.5-0.3-0.7l0.6-12.8c0-0.2-0.1-0.4-0.2-0.6l-2-2v-6.3
					c0-0.4-0.3-0.7-0.7-0.7s-0.7,0.3-0.7,0.7v6.6c0,0.2,0.1,0.4,0.2,0.5l2,2L14,33.3c-0.1,1.4,1,2.5,2.4,2.6c1.4,0.1,2.5-1,2.6-2.4
					c0-0.1,0-0.2,0-0.2l-0.6-12.5l2-2c0.1-0.1,0.2-0.3,0.2-0.5v-6.6C20.5,11.3,20.2,11,19.8,11z"/>
				<path id="Path_1_" class="st0" d="M15.4,11c-0.4,0-0.7,0.3-0.7,0.7v5.9c0,0.4,0.3,0.7,0.7,0.7c0.4,0,0.7-0.3,0.7-0.7v-5.9
					C16.1,11.3,15.8,11,15.4,11z"/>
				<path id="Path_2_" class="st0" d="M17.6,11c-0.4,0-0.7,0.3-0.7,0.7v5.9c0,0.4,0.3,0.7,0.7,0.7s0.7-0.3,0.7-0.7v-5.9
					C18.3,11.3,18,11,17.6,11z"/>
				<path id="Shape_1_" class="st0" d="M22,0C9.8,0,0,9.8,0,22s9.8,22,22,22s22-9.8,22-22C44,9.9,34.1,0,22,0z M22,42.5
					C10.7,42.5,1.5,33.3,1.5,22S10.7,1.5,22,1.5S42.5,10.7,42.5,22C42.5,33.3,33.3,42.5,22,42.5z"/>
				<path id="Path_3_" class="st0" d="M24.4,35.8c0-0.4-0.4-0.7-0.8-0.7c0,0,0,0,0,0l0,0c-1,0.1-2.1,0.1-3.1,0
					c-0.4,0-0.8,0.2-0.8,0.6s0.2,0.8,0.6,0.8c1.1,0.1,2.3,0.1,3.4,0C24.1,36.5,24.4,36.2,24.4,35.8z"/>
				<path id="Path_4_" class="st0" d="M33.2,12.6c-0.3-0.3-0.7-0.4-1-0.1c0,0,0,0,0,0c-0.3,0.3-0.3,0.7-0.1,1
					c4.4,5.2,4.1,13-0.8,17.9c-0.3,0.3-0.3,0.8,0,1c0.3,0.3,0.8,0.3,1,0C37.8,27,38.1,18.4,33.2,12.6z"/>
				<g id="Group" transform="translate(16.316667, 7.333333)">
					<path id="Path_5_" class="st0" d="M0.8,2.4C0.8,2.4,0.8,2.4,0.8,2.4C0.8,2.4,0.8,2.4,0.8,2.4L0.8,2.4z"/>
					<path id="Path_6_" class="st0" d="M9.1,0.4C6.3-0.3,3.3-0.1,0.5,0.9C0.1,1.1-0.1,1.5,0.1,1.9c0.1,0.3,0.4,0.5,0.7,0.5
						c0.1,0,0.2,0,0.3,0c2.5-0.9,5.2-1.1,7.8-0.5c0.4,0.1,0.8-0.1,0.9-0.5C9.8,0.9,9.5,0.5,9.1,0.4z"/>
				</g>
				<path id="Path_7_" class="st0" d="M12.6,31.3c-2.5-2.5-3.9-5.8-3.8-9.3c0-2.8,0.9-5.5,2.5-7.8c0.2-0.3,0.2-0.8-0.1-1
					c-0.3-0.2-0.8-0.2-1,0.1c0,0,0,0,0,0c-4.2,5.8-3.6,13.9,1.5,19c0.3,0.3,0.8,0.3,1,0C12.9,32.1,12.9,31.6,12.6,31.3z"/>
			</g>
		</g>
	</g>
</g>
</svg>
