<svg xmlns="http://www.w3.org/2000/svg" width="18" height="17" viewBox="0 0 18 17">
    <g fill="none" fill-rule="evenodd">
        <g fill="#161E17" fill-rule="nonzero">
            <g>
                <path d="M16.347 0H1.667c-.334-.004-.655.121-.894.35-.24.227-.376.539-.38.866v14.568c.004.327.14.639.38.867.239.228.56.353.893.349h14.681c.333.004.655-.121.894-.35.239-.227.376-.539.38-.866V1.216c-.004-.327-.141-.639-.38-.867-.239-.228-.56-.353-.894-.349zM5.618 14.23h-2.6v-7.65h2.6v7.65zm-1.3-8.72c-.746 0-1.352-.595-1.352-1.327s.606-1.326 1.352-1.326c.52-.058 1.027.182 1.305.616.279.434.279.986 0 1.42-.278.435-.785.674-1.305.616zm10.677 8.72h-2.6v-4.106c0-1.028-.372-1.7-1.317-1.7-.599.005-1.131.375-1.335.927-.067.2-.097.41-.086.62v4.25h-2.6V6.57h2.6v1.08c.481-.82 1.385-1.31 2.348-1.275 1.734 0 2.99 1.097 2.99 3.451v4.403z" transform="translate(-257 -1189) translate(257 1189)"/>
            </g>
        </g>
    </g>
</svg>
