<svg xmlns="http://www.w3.org/2000/svg" width="17" height="13" viewBox="0 0 17 13">
    <g fill="none" fill-rule="evenodd">
        <g fill="#161E17" fill-rule="nonzero">
            <path d="M275 1237.558c-.639.26-1.315.432-2.006.51.73-.409 1.276-1.053 1.538-1.812-.685.383-1.435.653-2.218.799-1.076-1.097-2.804-1.371-4.204-.669-1.4.703-2.118 2.205-1.746 3.655-2.803-.133-5.414-1.379-7.182-3.426-.307.504-.468 1.073-.468 1.653-.002 1.094.579 2.116 1.547 2.723-.554-.014-1.097-.154-1.581-.407v.04c.009 1.555 1.181 2.89 2.805 3.194-.303.086-.618.132-.935.135-.22-.002-.438-.02-.654-.056.46 1.33 1.766 2.241 3.255 2.268-1.226.906-2.74 1.401-4.301 1.405-.284.001-.568-.015-.85-.048 1.593.967 3.45 1.48 5.346 1.477 2.644.026 5.188-.947 7.06-2.701 1.872-1.754 2.915-4.141 2.894-6.624v-.424c.667-.467 1.242-1.04 1.7-1.692z" transform="translate(-258 -1236)"/>
        </g>
    </g>
</svg>
